inDegrees=no
num_controls=7
num_derivatives=13
num_iterations=107
num_multipliers=7
num_parameters=0
num_slacks=7
num_states=26
objective=0.445701
objective_accelerations=0.057525
objective_balance=0.003499
objective_effort=0.022912
objective_height=0.356223
objective_ligament=0.005542
solver_duration=1505.748974
status=Solve_Succeeded
success=true
DataType=double
version=3
OpenSimVersion=4.5
endheader
time	/jointset/ground_pelvis/pelvis_tilt/value	/jointset/ground_pelvis/pelvis_tx/value	/jointset/ground_pelvis/pelvis_ty/value	/jointset/hip_l/hip_flexion_l/value	/jointset/hip_l/hip_adduction_l/value	/jointset/hip_l/hip_rotation_l/value	/jointset/back/lumbar_extension/value	/jointset/patellofemoral_l/patellar_flexion_l/value	/jointset/knee_l/knee_flexion_l/value	/jointset/knee_l/knee_adduction_l/value	/jointset/knee_l/knee_rotation_l/value	/jointset/ankle_l/ankle_angle_l/value	/jointset/subtalar_l/subtalar_angle_l/value	/jointset/ground_pelvis/pelvis_tilt/speed	/jointset/ground_pelvis/pelvis_tx/speed	/jointset/ground_pelvis/pelvis_ty/speed	/jointset/hip_l/hip_flexion_l/speed	/jointset/hip_l/hip_adduction_l/speed	/jointset/hip_l/hip_rotation_l/speed	/jointset/back/lumbar_extension/speed	/jointset/patellofemoral_l/patellar_flexion_l/speed	/jointset/knee_l/knee_flexion_l/speed	/jointset/knee_l/knee_adduction_l/speed	/jointset/knee_l/knee_rotation_l/speed	/jointset/ankle_l/ankle_angle_l/speed	/jointset/subtalar_l/subtalar_angle_l/speed	/forceset/tau_hip_flexion_l	/forceset/tau_hip_adduction_l	/forceset/tau_hip_rotation_l	/forceset/tau_knee_flexion_l	/forceset/tau_ankle_angle_l	/forceset/tau_subtalar_angle_l	/forceset/tau_lumbar_extension	lambda_cid13_p0	lambda_cid13_p1	lambda_cid13_p2	lambda_cid13_p3	lambda_cid13_p4	lambda_cid13_p5	lambda_cid14_p0	/jointset/ground_pelvis/pelvis_tilt/accel	/jointset/ground_pelvis/pelvis_tx/accel	/jointset/ground_pelvis/pelvis_ty/accel	/jointset/hip_l/hip_flexion_l/accel	/jointset/hip_l/hip_adduction_l/accel	/jointset/hip_l/hip_rotation_l/accel	/jointset/back/lumbar_extension/accel	/jointset/patellofemoral_l/patellar_flexion_l/accel	/jointset/knee_l/knee_flexion_l/accel	/jointset/knee_l/knee_adduction_l/accel	/jointset/knee_l/knee_rotation_l/accel	/jointset/ankle_l/ankle_angle_l/accel	/jointset/subtalar_l/subtalar_angle_l/accel	gamma_cid13_p0	gamma_cid13_p1	gamma_cid13_p2	gamma_cid13_p3	gamma_cid13_p4	gamma_cid13_p5	gamma_cid14_p0
1	-0.5459651958217856	-0.07938196430684502	0.5740241601173139	1.831812382295929	-0.4679554583231038	0.0133453906380886	-0.2617623326313946	1.388744203767776	1.388744203768468	-0.08211814949910481	-0.1745203195165869	0.2250907140419182	-0.007851043084409624	-0.01424820042142151	0.01162569953902016	0.004912752044528308	-0.01134067305735639	-0.0026868082941217	0.0009868896626109968	-0.0001473943048304623	-0.003446292954890832	-0.003446292954890839	-0.005797561021576013	-0.0001189391552480526	0.02137693469114725	0.009141145084737264	-0.3323938400565555	0.01705919990085928	0.0001830122773184736	-0.3055514864697091	0.03643462400350952	0.02875603307017184	0.2841128333171113	-28.24712097372134	-8.110486992096462	1.605461110985958	7.471091017326509	-643.0728116404705	-45.98817762412212	-1.326240312148576	1.535284746512031	0.2452861100647227	1.976917347768409	-6.852033706888024	-0.07896003894881928	-2.340786003608351	-0.02369809028358902	-5.321045707076206	-5.32104570707592	-0.6157476781038292	-0.03184725496777675	-0.6867477805859483	-0.4703523424624231	4.450390371596061e-09	1.844974239477374e-08	-1.01178233960403e-08	2.132983870212861e-09	-2.466521687337729e-09	3.062025873655489e-08	1.266436256775612e-09
1.01	-0.5460318929763798	-0.07925350264536943	0.5741719660940964	1.831357773234832	-0.4679852149560554	0.01323707656221079	-0.2617639422261109	1.388443842743959	1.38844384274357	-0.08220409708454712	-0.1745217383629917	0.2252703016445861	-0.007781676204403286	0.0009058124245213471	0.01406854476280048	0.02464263646762203	-0.0795640443372659	-0.003256859716256075	-0.02264070221448178	-0.000171549218003658	-0.05662110833934859	-0.05662110833935171	-0.01138956882198447	-0.0001561475514862216	0.01453345814149752	0.004737464723340198	-0.3322457822768117	0.01717186599374333	0.0001648960172638436	-0.3053760819514559	0.03627506037443408	0.02877303624446448	0.2840016935399085	-28.28236126860044	-8.115901546724036	1.611122181794813	7.408990599396952	-642.8792114723402	-45.99687898190095	-1.332263961642979	1.505014642728486	0.2440711450455134	1.970150452672589	-6.804926211731613	-0.04488034283810702	-2.37240171811119	0.008672121232502198	-5.314976753927509	-5.314976753928218	-0.5305728665976941	0.0116539019985048	-0.68421601034082	-0.4245963410523932	-3.517070070831029e-09	1.046952862065911e-08	3.248135971426113e-08	3.067995367553678e-09	-1.245045491249816e-08	8.075114781886493e-08	-1.077762164694776e-08
1.02	-0.5459471389846952	-0.07910055504835412	0.5745168962077287	1.830221442986296	-0.4680204426330277	0.01289275537988459	-0.2617657041073446	1.387611878106339	1.387611878104872	-0.08234589385511645	-0.1745232669865267	0.2253812407981199	-0.007756190219625806	0.016042028834194	0.016522886646963	0.04433757941444431	-0.1476849105447463	-0.003781017098080175	-0.04621453162562978	-0.0001778516085035474	-0.1097670157156824	-0.1097670157156908	-0.01696739804592668	-0.0001408945897103654	0.007647244864396426	0.0003649660389830048	-0.3320977244970809	0.01728453208660325	0.0001467797571283997	-0.3052006774332006	0.03611549674535618	0.02879003941872571	0.2838905537626966	-28.32353050474088	-8.120278124131909	1.616617967512526	7.369242679271329	-642.7694419276114	-45.98390921892764	-1.348530782862632	1.531725459257979	0.2475854421411681	1.969929052514124	-6.831532692402207	-0.06978123088674003	-2.330033510419375	-0.02012758574892135	-5.315264105451417	-5.315264105451578	-0.6129119628105635	-0.02135498336492372	-0.6952951260762009	-0.4641160070544068	-1.264990588845057e-08	-1.083092333499442e-09	7.332629153952145e-08	3.155540723626063e-09	-2.317666477858479e-08	1.308190917422438e-07	-2.348035362179403e-08
1.03	-0.5457110700603872	-0.07892297306119722	0.5750585217317657	1.828404552897334	-0.4680607146266157	0.0123129225958599	-0.2617674409081504	1.386248684702317	1.386248684701845	-0.08254340371427248	-0.1745245627207173	0.2254229982200679	-0.007774371633134228	0.03117187354582022	0.01899865093171522	0.06397377588892809	-0.2156613898463957	-0.004267721972518625	-0.06974687612513585	-0.0001655112373418703	-0.1628585745263336	-0.1628585745263499	-0.02253140470351549	-0.0001256153519540139	0.0006867539490608694	-0.004004201522416949	-0.3316535657332614	0.01743677917167571	9.473703895462049e-05	-0.304875983139875	0.03601644073933798	0.02887896419723183	0.2835778757284289	-28.32449093992113	-8.171343224474285	1.639166487010889	7.263679347405741	-642.352980149786	-46.03962819135819	-1.375259191868444	1.503627765112597	0.2483435910851985	1.958395672178842	-6.775952428286701	-0.03727560903510616	-2.364085049678815	0.01251444588626192	-5.30413086953328	-5.304130869534403	-0.5276836024233464	0.01189417443194387	-0.699049190577004	-0.4237714198171743	-2.179463329153126e-08	-1.267216642214826e-08	1.14153322841465e-07	3.23443846601203e-09	-3.391044889610944e-08	1.808863933680826e-07	-3.618980676063136e-08
1.04	-0.5453236999313646	-0.07872047909730448	0.5757960953660006	1.825908848639506	-0.4681056857676107	0.01149791634086717	-0.2617689343857789	1.384354969890053	1.384354969890578	-0.08279646135702783	-0.1745259207030731	0.2253946261096006	-0.00783633558008354	0.04630226977735963	0.02150528199413186	0.08352720145395752	-0.2834477443176641	-0.004720846579474702	-0.09324922582314146	-0.0001291869726724735	-0.215871297363436	-0.2158712973634603	-0.02807695476871425	-0.0001533442307524488	-0.006378661618863947	-0.008391540649188024	-0.3312094069694309	0.01758902625679046	4.269432084417989e-05	-0.3045512888465459	0.03591738473333274	0.02896788897579919	0.2832651976941656	-28.33144277690158	-8.221414168543401	1.661619235817158	7.180683945096705	-642.0209356701388	-46.07423482685822	-1.412743073623617	1.531835763240619	0.2537587976740431	1.953374870623263	-6.793507726325958	-0.06306517739018676	-2.324034550119209	-0.01533080704737308	-5.299496910741659	-5.299496910741862	-0.6092206443325147	-0.02995660667572778	-0.7162800565940471	-0.4677503201285264	-2.639674024155261e-08	-1.097048449314062e-08	1.596240063787381e-07	7.349750665933814e-09	-4.178119337639166e-08	2.234934926899449e-07	-4.48477337832614e-08
